# xmcd CD database file
#
# Track frame offsets:
#	187
#	18325
#	35662
#	51607
#	68362
#	83922
#	100477
#	117142
#	131917
#	156100
#
# Disc length: 2328 seconds
#
# Revision: 0
# Processed by: cddbd v1.5.1PL0 Copyright (c) Steve Scherf et al.
# Submitted via: CDex 1.51
#
DISCID=8509160a
DTITLE=キララとウララ - ダブル・ファンタジー
DYEAR=1900
DGENRE=JPop
TTITLE0=スターダスト・ハリケーン
TTITLE1=夢・不思議いかが
TTITLE2=ピュア・ドロップス
TTITLE3=タキシードムーンで夕食を
TTITLE4=バイキング(Analog Version)
TTITLE5=センチ・メタル・ボーイ
TTITLE6=多感期のフラミンゴ(Version ?)
TTITLE7=素敵なラジオスター
TTITLE8=夢の近くで
TTITLE9=さよならにグット・ラック
EXTD=
EXTT0=
EXTT1=
EXTT2=
EXTT3=
EXTT4=
EXTT5=
EXTT6=
EXTT7=
EXTT8=
EXTT9=
PLAYORDER=
